# xmcd CD database file
#
# Track frame offsets:
#	150
#	26555
#	46492
#	66527
#	87550
#	106986
#	129952
#	148104
#	165265
#	188594
#
# Disc length: 2760 seconds
#
# Revision: 9
# Processed by: cddbd v1.5.1PL0 Copyright (c) Steve Scherf et al.
# Submitted via: CDex 1.51
#
DISCID=860ac60a
DTITLE=鄭秀文 - 去愛吧
DYEAR=2000
DGENRE=流行曲
TTITLE0=我在的地方
TTITLE1=至理名言
TTITLE2=一直到春天過去
TTITLE3=訊號
TTITLE4=沉默的縱容
TTITLE5=眼淚的上游
TTITLE6=態度
TTITLE7=知道的請告訴我
TTITLE8=你要我勇敢
TTITLE9=不准哭
EXTD=YEAR: 2000
EXTT0=
EXTT1=
EXTT2=
EXTT3=
EXTT4=
EXTT5=
EXTT6=
EXTT7=
EXTT8=
EXTT9=
PLAYORDER=
